<?xml version="1.0" encoding="utf-8"?>
<!-- Generator: Adobe Illustrator 16.0.0, SVG Export Plug-In . SVG Version: 6.00 Build 0)  -->
<!DOCTYPE svg PUBLIC "-//W3C//DTD SVG 1.1//EN" "http://www.w3.org/Graphics/SVG/1.1/DTD/svg11.dtd">
<svg version="1.1" id="Layer_5" xmlns="http://www.w3.org/2000/svg" xmlns:xlink="http://www.w3.org/1999/xlink" x="0px" y="0px"
	 width="920.954px" height="1027.449px" viewBox="0 0 920.954 1027.449" enable-background="new 0 0 920.954 1027.449"
	 xml:space="preserve">
<g>
	<path id="path8305_1_" fill="#A61E22" d="M460.478,333.23l-28.759,31.923c10.082,14.454,13.849,31.836,13.849,40.566
		c-8.563-15.1-17.969-19.459-27.23-25.705l-18.525,20.564c25.191,8.74,40.615,38.558,40.615,69.404
		c0,14.91-5.142,50.383-40.615,48.841v-0.145c-26.166-3.097-50.739-33.502-52.953-66.69c-2.207-33.089,11.824-65.292,34.96-92.026
		h-0.081c-42.305,25.169-71.661,70.043-75.559,122.279c-0.096,1.28-0.176,2.568-0.24,3.856c-0.001,0.026,0.001,0.053,0,0.081
		c-0.064,1.304-0.128,2.623-0.161,3.936c-0.033,1.338-0.048,2.687-0.048,4.033c0,85.42,69.326,154.748,154.748,154.748
		c85.419,0,154.747-69.327,154.747-154.748c0-4.004-0.152-7.977-0.451-11.905c-3.896-52.235-33.252-97.109-75.559-122.279h-0.08
		c23.137,26.734,37.166,58.938,34.961,92.026c-2.213,33.188-26.789,63.594-52.955,66.69v0.145
		c-35.473,1.542-40.615-33.932-40.615-48.841c0-30.846,15.424-60.664,40.615-69.404l-18.523-20.564
		c-9.262,6.245-18.668,10.605-27.232,25.705c0-8.73,3.768-26.112,13.85-40.566L460.478,333.23z"/>
	<path fill="#3A6E95" d="M460.478,207.492l262.499,145.98v296.614l-262.499,160.05l-262.5-160.05V353.472L460.478,207.492
		 M460.478,166.299l-298.5,166v338l298.5,182l298.499-182v-338L460.478,166.299L460.478,166.299z"/>
	<path fill="#B4B0AF" d="M460.478,28.649l-110.69,61.56l31.391,53.48l79.3-44.1l90.489,50.32l31.391-53.48L460.478,28.649z
		 M96.487,704.25v-97.36h-62v132.18l125.7,76.641l31.39-53.48L96.487,704.25z M167.527,191.569l-133.04,73.98v132.85h62v-96.39
		l102.43-56.96L167.527,191.569z M764.607,197.779l-31.391,53.48l91.25,50.75v96.39h62v-132.85L764.607,197.779z M824.467,606.889
		v97.36l-84.16,51.319l31.391,53.48l114.77-69.98v-132.18H824.467z M562.268,864.12l-101.79,62.06l-90.87-55.399l-31.39,53.479
		l122.26,74.54l133.179-81.2L562.268,864.12z"/>
</g>
</svg>
